<?xml version="1.0"?>
<svg width="65" height="50" xmlns="http://www.w3.org/2000/svg" xmlns:svg="http://www.w3.org/2000/svg">
 <g class="layer">
  <title>Gmail</title>
  <g id="svg_8">
   <path d="m50.16,4.65l-17.49,13.67l-17.87,-13.67l0,0l0.03,0.03l0,19.1l17.67,13.96l17.67,-13.4l0,-19.68z" fill="#EA4335" id="svg_1"/>
   <path d="m54.75,1.35l-4.58,3.3l0,19.68l14.45,-11.1l0,-6.69c0,0 -1.75,-9.55 -9.87,-5.2z" fill="#FBBC05" id="svg_2"/>
   <path d="m50.16,24.33l0,25.49l11.07,0c0,0 3.15,-0.32 3.39,-3.91l0,-32.68l-14.45,11.1z" fill="#34A853" id="svg_3"/>
   <path d="m14.83,49.85l0,-26.08l-0.03,0l0.03,26.08z" fill="#C5221F" id="svg_4"/>
   <path d="m14.8,4.65l-4.56,-3.3c-8.12,-4.32 -9.87,5.23 -9.87,5.23l0,6.69l14.43,10.51l0,-19.13z" fill="#C5221F" id="svg_5"/>
   <path d="m14.8,4.65l0,19.13l0.03,0l0,-19.1l-0.03,-0.03z" fill="#C5221F" id="svg_6"/>
   <path d="m0.37,13.26l0,32.68c0.23,3.59 3.39,3.91 3.39,3.91l11.07,0l-0.03,-26.08l-14.43,-10.51z" fill="#4285F4" id="svg_7"/>
  </g>
 </g>
</svg>