<?xml version="1.0"?>
<svg width="50" height="50" xmlns="http://www.w3.org/2000/svg" xmlns:svg="http://www.w3.org/2000/svg" class="icon" version="1.1">
 <g class="layer">
  <title>Layer 1</title>
  <path d="m45.39,29.07c-0.39,-0.7 -1.28,-0.93 -1.97,-0.53c-0.7,0.39 -0.93,1.28 -0.54,1.97c3.92,6.83 4.91,12.53 2.58,14.86c-4.46,4.47 -18.36,-3.21 -28.05,-12.9c-2.45,-2.45 -4.64,-4.99 -6.56,-7.54c1.97,-2.66 4.2,-5.26 6.56,-7.61c9.68,-9.68 23.58,-17.35 28.05,-12.89c1.82,1.82 1.63,5.75 -0.52,10.78c-2.36,5.52 -6.76,11.65 -12.38,17.27c-1.31,1.31 -2.68,2.58 -4.05,3.76c-0.61,0.52 -0.67,1.44 -0.15,2.04c0.52,0.61 1.44,0.67 2.04,0.15c1.43,-1.23 2.84,-2.55 4.21,-3.91c5.87,-5.87 10.48,-12.32 12.99,-18.17c2.69,-6.26 2.65,-11.23 -0.09,-13.97c-5.4,-5.4 -19.52,0.27 -32.14,12.9c-2.35,2.35 -4.46,4.76 -6.31,7.14c-1.66,-2.46 -3.03,-4.89 -4.02,-7.21c-2.16,-5.03 -2.35,-8.96 -0.52,-10.78c2.33,-2.33 8.02,-1.35 14.85,2.57c0.69,0.39 1.58,0.16 1.97,-0.54c0.39,-0.7 0.16,-1.58 -0.54,-1.97c-8.25,-4.73 -14.93,-5.5 -18.33,-2.1c-2.75,2.75 -2.78,7.7 -0.09,13.97c1.18,2.76 2.84,5.65 4.87,8.54c-6.65,9.53 -8.82,18.47 -4.78,22.52c1.4,1.4 3.36,2.09 5.75,2.09c3.46,0 7.83,-1.45 12.76,-4.3c0.69,-0.4 0.93,-1.28 0.52,-1.98c-0.4,-0.69 -1.28,-0.93 -1.98,-0.52c-6.9,4.01 -12.65,5.03 -15.01,2.67c-3.04,-3.04 -0.44,-10.47 4.58,-17.96c1.86,2.41 3.97,4.8 6.26,7.1c5.87,5.87 12.32,10.48 18.17,12.99c3.09,1.33 5.88,1.99 8.23,1.99c2.4,0 4.35,-0.7 5.75,-2.08c3.4,-3.4 2.63,-10.09 -2.12,-18.35zm-20.4,-8.99c-2.66,0 -4.83,2.16 -4.83,4.83s2.16,4.83 4.83,4.83s4.83,-2.16 4.83,-4.83c-0.01,-2.66 -2.16,-4.83 -4.83,-4.83z" fill="#F3F3F3" id="svg_1"/>
 </g>
</svg>