<svg xmlns="http://www.w3.org/2000/svg" version="1.1" class='navLink' fill='#f3f3f3' width="50" height="47">
<path d="m48.7,12.8c-0.9,-0.7 -1.6,-1.2 -3.3,-1.2l-8.6,0l0,0l-8.8,0l0,-11.6l-5.3,3.8l0,7.8l-8.7,0l-0.4,0l-6.7,0l0,0l-6.9,5.5l0,14c0,1.5 0.6,2 1.3,2.9c0.9,0.7 1.6,1.2 3.4,1.2l9,0l0.3,0l8.7,0l0,12l5.3,-3.8l0,-8.1l8.6,0l0.1,0l6.4,0l0,0l6.7,-5.6l0,-14c0.2,-1.5 -0.4,-2.1 -1.1,-2.9zm-34.7,18.3l-0.4,0l-9,0l0,-15.3l9,0l0.4,0l8.7,0l0,15.3l-8.7,0zm31.5,0l-8.7,0l0,0l-8.8,0l0,-15.3l8.6,0l0,0l8.8,0l0,15.3l0.1,0z"/>
</svg>
