<svg width="120pt" height="32pt" viewBox="0 0 120 32" version="1.1">
<defs>
<clipPath id="clip1">
<path d="M 20 0.921875 L 100 0.921875 L 100 17 L 20 17 Z M 20 0.921875 "/>
</clipPath>
<clipPath id="clip2">
<path d="M 114 9 L 119.847656 9 L 119.847656 23 L 114 23 Z M 114 9 "/>
</clipPath>
</defs>
<g id="surface1">
<g clip-path="url(#clip1)" clip-rule="nonzero">
<path style="fill:none;stroke-width:8;stroke-linecap:butt;stroke-linejoin:miter;stroke:rgb(100%,100%,100%);stroke-opacity:1;stroke-miterlimit:4;" d="M 948.320312 200.3125 C 948.320312 200.3125 801.757812 312.773438 601.757812 306.523438 L 600.507812 306.523438 C 400.507812 312.773438 248.320312 197.8125 248.320312 197.8125 " transform="matrix(0.1,0,0,-0.1,0,32)"/>
</g>
<path style="fill:none;stroke-width:8;stroke-linecap:butt;stroke-linejoin:miter;stroke:rgb(100%,100%,100%);stroke-opacity:1;stroke-miterlimit:4;" d="M 248.320312 112.8125 C 248.320312 112.8125 400.820312 -1.992188 600.820312 4.257812 L 602.070312 4.257812 C 802.070312 -1.992188 948.320312 115.3125 948.320312 115.3125 " transform="matrix(0.1,0,0,-0.1,0,32)"/>
<path style="stroke:none;fill-rule:nonzero;fill:rgb(100%,100%,100%);fill-opacity:1;" d="M 45.152344 28.066406 L 44.402344 27.855469 L 44.488281 25.351562 L 44.480469 25.347656 L 43.242188 27.519531 L 42.476562 27.300781 L 42.550781 23.613281 L 43.304688 23.828125 L 43.179688 26.320312 L 43.1875 26.320312 L 44.453125 24.15625 L 45.160156 24.355469 L 45.070312 26.890625 L 45.078125 26.890625 L 46.316406 24.6875 L 47.058594 24.898438 L 45.152344 28.066406 "/>
<path style="stroke:none;fill-rule:nonzero;fill:rgb(100%,100%,100%);fill-opacity:1;" d="M 48.460938 25.167969 L 49.25 25.324219 L 49.859375 29.082031 L 49.0625 28.921875 L 48.953125 28.089844 L 47.644531 27.828125 L 47.214844 28.554688 L 46.4375 28.398438 Z M 47.960938 27.296875 L 48.867188 27.476562 L 48.683594 26.105469 L 48.671875 26.105469 L 47.960938 27.296875 "/>
<path style="stroke:none;fill-rule:nonzero;fill:rgb(100%,100%,100%);fill-opacity:1;" d="M 51.195312 28.078125 C 51.132812 28.546875 51.472656 28.78125 51.890625 28.835938 C 52.160156 28.875 52.585938 28.851562 52.636719 28.492188 C 52.6875 28.109375 52.167969 27.972656 51.667969 27.765625 C 51.160156 27.554688 50.660156 27.28125 50.75 26.617188 C 50.847656 25.898438 51.578125 25.644531 52.214844 25.730469 C 52.953125 25.832031 53.585938 26.242188 53.476562 27.058594 L 52.722656 26.957031 C 52.757812 26.527344 52.46875 26.378906 52.097656 26.328125 C 51.851562 26.292969 51.550781 26.359375 51.511719 26.65625 C 51.472656 26.929688 51.636719 26.984375 52.492188 27.332031 C 52.738281 27.433594 53.507812 27.703125 53.398438 28.503906 C 53.3125 29.152344 52.738281 29.566406 51.777344 29.4375 C 50.996094 29.332031 50.316406 28.84375 50.445312 27.976562 L 51.195312 28.078125 "/>
<path style="stroke:none;fill-rule:nonzero;fill:rgb(100%,100%,100%);fill-opacity:1;" d="M 54.320312 26.074219 L 55.101562 26.128906 L 55.007812 27.496094 L 56.449219 27.597656 L 56.542969 26.230469 L 57.328125 26.285156 L 57.078125 29.847656 L 56.292969 29.792969 L 56.402344 28.253906 L 54.960938 28.152344 L 54.851562 29.691406 L 54.066406 29.636719 L 54.320312 26.074219 "/>
<path style="stroke:none;fill-rule:nonzero;fill:rgb(100%,100%,100%);fill-opacity:1;" d="M 58.140625 26.304688 L 58.925781 26.320312 L 58.847656 29.882812 L 58.066406 29.867188 L 58.140625 26.304688 "/>
<path style="stroke:none;fill-rule:nonzero;fill:rgb(100%,100%,100%);fill-opacity:1;" d="M 59.746094 26.34375 L 60.523438 26.324219 L 62.074219 28.671875 L 62.085938 28.671875 L 62.019531 26.28125 L 62.753906 26.261719 L 62.851562 29.824219 L 62.066406 29.84375 L 60.519531 27.5 L 60.511719 27.5 L 60.574219 29.886719 L 59.84375 29.90625 L 59.746094 26.34375 "/>
<path style="stroke:none;fill-rule:nonzero;fill:rgb(100%,100%,100%);fill-opacity:1;" d="M 66.425781 29.101562 C 66.1875 29.484375 65.84375 29.652344 65.5 29.6875 C 64.398438 29.792969 63.671875 29.035156 63.574219 28.011719 C 63.46875 26.957031 64.035156 26.074219 65.136719 25.964844 C 65.859375 25.894531 66.589844 26.273438 66.753906 27.070312 L 66.007812 27.144531 C 65.878906 26.761719 65.566406 26.585938 65.199219 26.621094 C 64.496094 26.691406 64.292969 27.3125 64.351562 27.9375 C 64.410156 28.527344 64.734375 29.097656 65.4375 29.03125 C 65.941406 28.980469 66.210938 28.675781 66.207031 28.179688 L 65.421875 28.257812 L 65.363281 27.675781 L 66.855469 27.53125 L 67.042969 29.449219 L 66.546875 29.5 L 66.425781 29.101562 "/>
<path style="stroke:none;fill-rule:nonzero;fill:rgb(100%,100%,100%);fill-opacity:1;" d="M 68.308594 26.304688 L 67.253906 26.480469 L 67.144531 25.828125 L 70.027344 25.347656 L 70.136719 26 L 69.082031 26.175781 L 69.5625 29.042969 L 68.789062 29.171875 L 68.308594 26.304688 "/>
<path style="stroke:none;fill-rule:nonzero;fill:rgb(100%,100%,100%);fill-opacity:1;" d="M 72.082031 24.800781 C 73.15625 24.546875 73.976562 25.199219 74.21875 26.234375 C 74.457031 27.234375 74.011719 28.1875 72.9375 28.441406 C 71.859375 28.695312 71.039062 28.039062 70.804688 27.035156 C 70.5625 26.003906 71.003906 25.050781 72.082031 24.800781 Z M 72.785156 27.796875 C 73.472656 27.636719 73.59375 26.992188 73.457031 26.414062 C 73.3125 25.804688 72.917969 25.28125 72.230469 25.441406 C 71.546875 25.605469 71.425781 26.25 71.566406 26.855469 C 71.703125 27.4375 72.097656 27.960938 72.785156 27.796875 "/>
<path style="stroke:none;fill-rule:nonzero;fill:rgb(100%,100%,100%);fill-opacity:1;" d="M 74.414062 24.304688 L 75.15625 24.074219 L 77.292969 25.90625 L 77.300781 25.90625 L 76.585938 23.625 L 77.285156 23.40625 L 78.351562 26.804688 L 77.605469 27.039062 L 75.476562 25.207031 L 75.464844 25.210938 L 76.183594 27.484375 L 75.480469 27.707031 L 74.414062 24.304688 "/>
<path style="fill:none;stroke-width:8;stroke-linecap:butt;stroke-linejoin:miter;stroke:rgb(100%,100%,100%);stroke-opacity:1;stroke-miterlimit:4;" d="M 403.320312 195.3125 C 403.320312 195.3125 587.109375 296.015625 799.960938 198.632812 " transform="matrix(0.1,0,0,-0.1,0,32)"/>
<path style="fill:none;stroke-width:8;stroke-linecap:butt;stroke-linejoin:miter;stroke:rgb(100%,100%,100%);stroke-opacity:1;stroke-miterlimit:4;" d="M 403.320312 113.632812 C 403.320312 113.632812 594.960938 10.3125 799.960938 117.8125 " transform="matrix(0.1,0,0,-0.1,0,32)"/>
<path style="fill:none;stroke-width:8;stroke-linecap:butt;stroke-linejoin:miter;stroke:rgb(100%,100%,100%);stroke-opacity:1;stroke-miterlimit:4;" d="M 511.757812 192.773438 L 227.382812 198.164062 L 215.507812 176.523438 C 213.320312 179.960938 203.164062 181.289062 203.164062 181.289062 C 189.492188 181.289062 178.398438 170.195312 178.398438 156.523438 C 178.398438 142.851562 189.492188 131.757812 203.164062 131.757812 C 203.164062 131.757812 209.882812 132.148438 215.507812 134.023438 L 224.882812 111.132812 L 509.257812 116.523438 " transform="matrix(0.1,0,0,-0.1,0,32)"/>
<path style="fill:none;stroke-width:8;stroke-linecap:butt;stroke-linejoin:miter;stroke:rgb(100%,100%,100%);stroke-opacity:1;stroke-miterlimit:4;" d="M 689.257812 195.273438 L 973.632812 200.664062 L 985.507812 179.023438 C 987.695312 182.460938 997.851562 183.789062 997.851562 183.789062 C 1011.484375 183.789062 1022.578125 172.695312 1022.578125 159.023438 C 1022.578125 145.351562 1011.484375 134.257812 997.851562 134.257812 C 997.851562 134.257812 991.132812 134.648438 985.507812 136.523438 L 976.132812 113.632812 L 691.757812 119.023438 " transform="matrix(0.1,0,0,-0.1,0,32)"/>
<path style="stroke:none;fill-rule:nonzero;fill:rgb(100%,100%,100%);fill-opacity:1;" d="M 37.613281 8.078125 L 38.335938 7.71875 L 41.113281 10.332031 L 40.382812 10.695312 L 39.785156 10.097656 L 38.589844 10.691406 L 38.691406 11.527344 L 37.976562 11.878906 Z M 38.515625 10.074219 L 39.34375 9.664062 L 38.359375 8.6875 L 38.351562 8.695312 L 38.515625 10.074219 "/>
<path style="stroke:none;fill-rule:nonzero;fill:rgb(100%,100%,100%);fill-opacity:1;" d="M 40.207031 6.875 L 40.9375 6.589844 L 41.996094 9.296875 L 43.613281 8.664062 L 43.855469 9.28125 L 41.503906 10.199219 L 40.207031 6.875 "/>
<path style="stroke:none;fill-rule:nonzero;fill:rgb(100%,100%,100%);fill-opacity:1;" d="M 43.320312 5.695312 L 44.070312 5.460938 L 44.941406 8.242188 L 46.601562 7.71875 L 46.800781 8.351562 L 44.390625 9.105469 L 43.320312 5.695312 "/>
<path style="stroke:none;fill-rule:nonzero;fill:rgb(100%,100%,100%);fill-opacity:1;" d="M 46.464844 4.765625 L 47.222656 4.570312 L 48.117188 8.023438 L 47.359375 8.21875 L 46.464844 4.765625 "/>
<path style="stroke:none;fill-rule:nonzero;fill:rgb(100%,100%,100%);fill-opacity:1;" d="M 48.199219 4.316406 L 50.8125 3.777344 L 50.945312 4.425781 L 49.101562 4.804688 L 49.253906 5.554688 L 50.949219 5.203125 L 51.070312 5.800781 L 49.378906 6.152344 L 49.554688 7.007812 L 51.4375 6.621094 L 51.570312 7.265625 L 48.917969 7.8125 L 48.199219 4.316406 "/>
<path style="stroke:none;fill-rule:nonzero;fill:rgb(100%,100%,100%);fill-opacity:1;" d="M 51.75 3.617188 L 53.277344 3.417969 C 54.195312 3.300781 54.957031 3.785156 55.109375 4.960938 C 55.242188 5.988281 54.816406 6.820312 53.734375 6.960938 L 52.207031 7.15625 Z M 52.902344 6.402344 L 53.597656 6.3125 C 54.046875 6.253906 54.445312 5.921875 54.34375 5.136719 C 54.25 4.421875 53.941406 4 53.167969 4.097656 L 52.613281 4.171875 L 52.902344 6.402344 "/>
<path style="stroke:none;fill-rule:nonzero;fill:rgb(100%,100%,100%);fill-opacity:1;" d="M 57.535156 3.027344 L 59.140625 2.988281 C 60.03125 2.964844 60.386719 3.519531 60.402344 4.097656 C 60.414062 4.679688 60.085938 5.25 59.199219 5.273438 L 58.375 5.292969 L 58.40625 6.570312 L 57.621094 6.589844 Z M 58.359375 4.683594 L 58.96875 4.667969 C 59.332031 4.660156 59.65625 4.570312 59.644531 4.117188 C 59.632812 3.664062 59.304688 3.59375 58.941406 3.601562 L 58.332031 3.617188 L 58.359375 4.683594 "/>
<path style="stroke:none;fill-rule:nonzero;fill:rgb(100%,100%,100%);fill-opacity:1;" d="M 61.238281 2.964844 L 63.15625 3.054688 C 63.796875 3.082031 64.179688 3.546875 64.15625 4.085938 C 64.136719 4.503906 63.953125 4.8125 63.550781 4.953125 L 63.550781 4.960938 C 63.929688 5.082031 64.023438 5.460938 64.03125 5.820312 C 64.035156 6.042969 64.011719 6.464844 64.140625 6.667969 L 63.359375 6.632812 C 63.273438 6.40625 63.300781 6.0625 63.273438 5.773438 C 63.234375 5.398438 63.097656 5.226562 62.703125 5.207031 L 61.921875 5.171875 L 61.855469 6.566406 L 61.074219 6.527344 Z M 61.945312 4.613281 L 62.804688 4.652344 C 63.152344 4.667969 63.351562 4.527344 63.367188 4.167969 C 63.382812 3.824219 63.199219 3.667969 62.851562 3.652344 L 61.992188 3.609375 L 61.945312 4.613281 "/>
<path style="stroke:none;fill-rule:nonzero;fill:rgb(100%,100%,100%);fill-opacity:1;" d="M 65.167969 3.207031 L 65.949219 3.285156 L 65.589844 6.839844 L 64.808594 6.757812 L 65.167969 3.207031 "/>
<path style="stroke:none;fill-rule:nonzero;fill:rgb(100%,100%,100%);fill-opacity:1;" d="M 66.957031 3.382812 L 67.726562 3.503906 L 68.835938 6.097656 L 68.84375 6.097656 L 69.210938 3.730469 L 69.9375 3.84375 L 69.390625 7.371094 L 68.617188 7.253906 L 67.511719 4.664062 L 67.503906 4.660156 L 67.136719 7.023438 L 66.410156 6.914062 L 66.957031 3.382812 "/>
<path style="stroke:none;fill-rule:nonzero;fill:rgb(100%,100%,100%);fill-opacity:1;" d="M 71.59375 4.882812 L 70.550781 4.648438 L 70.695312 4.003906 L 73.542969 4.648438 L 73.398438 5.289062 L 72.355469 5.054688 L 71.71875 7.886719 L 70.953125 7.714844 L 71.59375 4.882812 "/>
<path style="stroke:none;fill-rule:nonzero;fill:rgb(100%,100%,100%);fill-opacity:1;" d="M 74.226562 4.839844 L 74.984375 5.042969 L 74.050781 8.488281 L 73.292969 8.28125 L 74.226562 4.839844 "/>
<path style="stroke:none;fill-rule:nonzero;fill:rgb(100%,100%,100%);fill-opacity:1;" d="M 75.960938 5.3125 L 76.699219 5.554688 L 77.367188 8.292969 L 77.378906 8.296875 L 78.125 6.023438 L 78.820312 6.25 L 77.710938 9.640625 L 76.964844 9.394531 L 76.300781 6.664062 L 76.289062 6.660156 L 75.546875 8.929688 L 74.847656 8.703125 L 75.960938 5.3125 "/>
<path style="stroke:none;fill-rule:nonzero;fill:rgb(100%,100%,100%);fill-opacity:1;" d="M 81.011719 10.515625 C 80.621094 10.742188 80.238281 10.730469 79.921875 10.601562 C 78.898438 10.1875 78.605469 9.179688 78.992188 8.226562 C 79.390625 7.246094 80.300781 6.730469 81.324219 7.144531 C 82 7.417969 82.46875 8.09375 82.242188 8.875 L 81.550781 8.59375 C 81.613281 8.195312 81.417969 7.894531 81.074219 7.753906 C 80.425781 7.488281 79.953125 7.945312 79.71875 8.523438 C 79.496094 9.074219 79.515625 9.726562 80.167969 9.992188 C 80.640625 10.183594 81.015625 10.039062 81.242188 9.597656 L 80.511719 9.300781 L 80.730469 8.761719 L 82.121094 9.324219 L 81.394531 11.109375 L 80.933594 10.921875 L 81.011719 10.515625 "/>
<path style="stroke:none;fill-rule:nonzero;fill:rgb(100%,100%,100%);fill-opacity:1;" d="M 55.625 14.496094 C 55.625 15.390625 55.125 15.828125 54.292969 15.828125 C 53.453125 15.828125 52.964844 15.398438 52.964844 14.496094 L 52.964844 12.4375 L 53.652344 12.4375 L 53.652344 14.496094 C 53.652344 14.859375 53.738281 15.214844 54.292969 15.214844 C 54.78125 15.214844 54.9375 14.988281 54.9375 14.496094 L 54.9375 12.4375 L 55.625 12.4375 L 55.625 14.496094 "/>
<path style="stroke:none;fill-rule:nonzero;fill:rgb(100%,100%,100%);fill-opacity:1;" d="M 56.394531 12.4375 L 57.078125 12.4375 L 58.378906 14.660156 L 58.386719 14.660156 L 58.386719 12.4375 L 59.027344 12.4375 L 59.027344 15.75 L 58.339844 15.75 L 57.046875 13.53125 L 57.035156 13.53125 L 57.035156 15.75 L 56.394531 15.75 L 56.394531 12.4375 "/>
<path style="stroke:none;fill-rule:nonzero;fill:rgb(100%,100%,100%);fill-opacity:1;" d="M 59.8125 15.75 L 60.496094 15.75 L 60.496094 12.4375 L 59.8125 12.4375 Z M 59.8125 15.75 "/>
<path style="stroke:none;fill-rule:nonzero;fill:rgb(100%,100%,100%);fill-opacity:1;" d="M 62.675781 12.359375 C 63.640625 12.359375 64.207031 13.125 64.207031 14.105469 C 64.207031 15.0625 63.640625 15.828125 62.675781 15.828125 C 61.710938 15.828125 61.144531 15.0625 61.144531 14.105469 C 61.144531 13.125 61.710938 12.359375 62.675781 12.359375 Z M 62.675781 15.214844 C 63.292969 15.214844 63.523438 14.660156 63.523438 14.105469 C 63.523438 13.527344 63.292969 12.96875 62.675781 12.96875 C 62.0625 12.96875 61.828125 13.527344 61.828125 14.105469 C 61.828125 14.660156 62.0625 15.214844 62.675781 15.214844 "/>
<path style="stroke:none;fill-rule:nonzero;fill:rgb(100%,100%,100%);fill-opacity:1;" d="M 64.855469 12.4375 L 65.539062 12.4375 L 66.839844 14.660156 L 66.847656 14.660156 L 66.847656 12.4375 L 67.488281 12.4375 L 67.488281 15.75 L 66.804688 15.75 L 65.507812 13.53125 L 65.5 13.53125 L 65.5 15.75 L 64.855469 15.75 L 64.855469 12.4375 "/>
<path style="stroke:none;fill-rule:nonzero;fill:rgb(100%,100%,100%);fill-opacity:1;" d="M 53.140625 17.4375 L 53.824219 17.4375 L 53.824219 20.136719 L 55.34375 20.136719 L 55.34375 20.75 L 53.140625 20.75 L 53.140625 17.4375 "/>
<path style="stroke:none;fill-rule:nonzero;fill:rgb(100%,100%,100%);fill-opacity:1;" d="M 56.761719 17.4375 L 57.460938 17.4375 L 58.628906 20.75 L 57.917969 20.75 L 57.679688 20.011719 L 56.515625 20.011719 L 56.269531 20.75 L 55.578125 20.75 Z M 56.695312 19.46875 L 57.5 19.46875 L 57.109375 18.253906 L 57.101562 18.253906 L 56.695312 19.46875 "/>
<path style="stroke:none;fill-rule:nonzero;fill:rgb(100%,100%,100%);fill-opacity:1;" d="M 59.078125 17.4375 L 60.546875 17.4375 C 61.140625 17.4375 61.539062 17.640625 61.539062 18.257812 C 61.539062 18.582031 61.386719 18.808594 61.117188 18.949219 C 61.496094 19.066406 61.691406 19.375 61.691406 19.789062 C 61.691406 20.460938 61.152344 20.75 60.589844 20.75 L 59.078125 20.75 Z M 59.765625 20.183594 L 60.5 20.183594 C 60.769531 20.183594 61.003906 20.089844 61.003906 19.746094 C 61.003906 19.410156 60.804688 19.273438 60.511719 19.273438 L 59.765625 19.273438 Z M 59.765625 18.777344 L 60.457031 18.777344 C 60.699219 18.777344 60.878906 18.660156 60.878906 18.382812 C 60.878906 18.070312 60.652344 18.003906 60.40625 18.003906 L 59.765625 18.003906 L 59.765625 18.777344 "/>
<path style="stroke:none;fill-rule:nonzero;fill:rgb(100%,100%,100%);fill-opacity:1;" d="M 62.332031 17.4375 L 64.664062 17.4375 L 64.664062 18.050781 L 63.019531 18.050781 L 63.019531 18.757812 L 64.527344 18.757812 L 64.527344 19.324219 L 63.019531 19.324219 L 63.019531 20.136719 L 64.699219 20.136719 L 64.699219 20.75 L 62.332031 20.75 L 62.332031 17.4375 "/>
<path style="stroke:none;fill-rule:nonzero;fill:rgb(100%,100%,100%);fill-opacity:1;" d="M 65.34375 17.4375 L 66.027344 17.4375 L 66.027344 20.136719 L 67.546875 20.136719 L 67.546875 20.75 L 65.34375 20.75 L 65.34375 17.4375 "/>
<path style="fill:none;stroke-width:8;stroke-linecap:butt;stroke-linejoin:miter;stroke:rgb(100%,100%,100%);stroke-opacity:1;stroke-miterlimit:4;" d="M 83.203125 74.570312 C 126.914062 74.570312 162.382812 110.039062 162.382812 153.75 C 162.382812 197.460938 126.914062 232.929688 83.203125 232.929688 C 39.453125 232.929688 3.984375 197.460938 3.984375 153.75 C 3.984375 110.039062 39.453125 74.570312 83.203125 74.570312 Z M 83.203125 74.570312 " transform="matrix(0.1,0,0,-0.1,0,32)"/>
<path style="stroke:none;fill-rule:nonzero;fill:rgb(100%,100%,100%);fill-opacity:1;" d="M 4.078125 11.34375 L 9.691406 11.34375 C 11.554688 11.34375 12.734375 12.640625 12.734375 14.214844 C 12.734375 15.441406 12.238281 16.359375 11.089844 16.824219 L 11.089844 16.851562 C 12.210938 17.144531 12.53125 18.238281 12.605469 19.285156 C 12.648438 19.941406 12.632812 21.167969 13.042969 21.75 L 10.753906 21.75 C 10.476562 21.09375 10.507812 20.089844 10.390625 19.257812 C 10.230469 18.164062 9.804688 17.683594 8.65625 17.683594 L 6.367188 17.683594 L 6.367188 21.75 L 4.078125 21.75 Z M 6.367188 16.050781 L 8.875 16.050781 C 9.894531 16.050781 10.449219 15.613281 10.449219 14.566406 C 10.449219 13.558594 9.894531 13.121094 8.875 13.121094 L 6.367188 13.121094 L 6.367188 16.050781 "/>
<path style="fill:none;stroke-width:8;stroke-linecap:butt;stroke-linejoin:miter;stroke:rgb(100%,100%,100%);stroke-opacity:1;stroke-miterlimit:4;" d="M 203.398438 142.1875 C 211.25 142.1875 217.617188 148.59375 217.617188 156.445312 C 217.617188 164.335938 211.25 170.703125 203.398438 170.703125 C 195.507812 170.703125 189.140625 164.335938 189.140625 156.445312 C 189.140625 148.59375 195.507812 142.1875 203.398438 142.1875 Z M 203.398438 142.1875 " transform="matrix(0.1,0,0,-0.1,0,32)"/>
<path style="fill:none;stroke-width:8;stroke-linecap:butt;stroke-linejoin:miter;stroke:rgb(100%,100%,100%);stroke-opacity:1;stroke-miterlimit:4;" d="M 997.617188 144.6875 C 989.726562 144.6875 983.359375 151.09375 983.359375 158.945312 C 983.359375 166.835938 989.726562 173.203125 997.617188 173.203125 C 1005.46875 173.203125 1011.875 166.835938 1011.875 158.945312 C 1011.875 151.09375 1005.46875 144.6875 997.617188 144.6875 Z M 997.617188 144.6875 " transform="matrix(0.1,0,0,-0.1,0,32)"/>
<path style="stroke:none;fill-rule:nonzero;fill:rgb(100%,100%,100%);fill-opacity:1;" d="M 112.722656 22.324219 L 103.640625 22.324219 C 103.660156 20.140625 104.78125 18.484375 106.566406 17.289062 C 108.296875 16.035156 110.535156 14.992188 110.574219 12.917969 C 110.59375 11.96875 110.195312 10.566406 108.332031 10.566406 C 106.625 10.566406 106.109375 12.027344 106.054688 13.890625 L 103.886719 13.890625 C 103.886719 10.945312 105.503906 8.761719 108.464844 8.761719 C 111.714844 8.761719 112.742188 11.132812 112.742188 12.84375 C 112.742188 14.953125 111.296875 16.265625 109.777344 17.328125 C 108.238281 18.390625 106.625 19.207031 106.242188 20.386719 L 112.722656 20.386719 L 112.722656 22.324219 "/>
<g clip-path="url(#clip2)" clip-rule="nonzero">
<path style="stroke:none;fill-rule:nonzero;fill:rgb(100%,100%,100%);fill-opacity:1;" d="M 114.207031 11.230469 C 116.027344 11.246094 117.757812 10.621094 118.082031 9.027344 L 119.847656 9.027344 L 119.847656 22.324219 L 117.472656 22.324219 L 117.472656 12.9375 L 114.207031 12.9375 L 114.207031 11.230469 "/>
</g>
<path style="stroke:none;fill-rule:nonzero;fill:rgb(100%,100%,100%);fill-opacity:1;" d="M 24.828125 15.355469 L 23.542969 15.355469 L 23.542969 14.566406 L 27.050781 14.566406 L 27.050781 15.355469 L 25.769531 15.355469 L 25.769531 18.847656 L 24.828125 18.847656 L 24.828125 15.355469 "/>
<path style="stroke:none;fill-rule:nonzero;fill:rgb(100%,100%,100%);fill-opacity:1;" d="M 27.761719 14.566406 L 30.070312 14.566406 C 30.839844 14.566406 31.324219 15.097656 31.324219 15.746094 C 31.324219 16.25 31.121094 16.628906 30.644531 16.820312 L 30.644531 16.832031 C 31.109375 16.953125 31.238281 17.402344 31.269531 17.835938 C 31.289062 18.101562 31.28125 18.605469 31.449219 18.847656 L 30.507812 18.847656 C 30.394531 18.578125 30.40625 18.164062 30.359375 17.820312 C 30.292969 17.371094 30.117188 17.175781 29.644531 17.175781 L 28.703125 17.175781 L 28.703125 18.847656 L 27.761719 18.847656 Z M 28.703125 16.503906 L 29.734375 16.503906 C 30.15625 16.503906 30.382812 16.324219 30.382812 15.890625 C 30.382812 15.476562 30.15625 15.296875 29.734375 15.296875 L 28.703125 15.296875 L 28.703125 16.503906 "/>
<path style="stroke:none;fill-rule:nonzero;fill:rgb(100%,100%,100%);fill-opacity:1;" d="M 33.480469 14.566406 L 34.445312 14.566406 L 36.046875 18.847656 L 35.070312 18.847656 L 34.746094 17.894531 L 33.144531 17.894531 L 32.808594 18.847656 L 31.855469 18.847656 Z M 33.390625 17.191406 L 34.5 17.191406 L 33.957031 15.621094 L 33.949219 15.621094 L 33.390625 17.191406 "/>
<path style="stroke:none;fill-rule:nonzero;fill:rgb(100%,100%,100%);fill-opacity:1;" d="M 36.636719 14.566406 L 38.484375 14.566406 C 39.589844 14.566406 40.425781 15.261719 40.425781 16.683594 C 40.425781 17.921875 39.789062 18.847656 38.484375 18.847656 L 36.636719 18.847656 Z M 37.578125 18.054688 L 38.417969 18.054688 C 38.960938 18.054688 39.484375 17.71875 39.484375 16.773438 C 39.484375 15.910156 39.183594 15.355469 38.25 15.355469 L 37.578125 15.355469 L 37.578125 18.054688 "/>
<path style="stroke:none;fill-rule:nonzero;fill:rgb(100%,100%,100%);fill-opacity:1;" d="M 41.296875 14.566406 L 44.5 14.566406 L 44.5 15.355469 L 42.238281 15.355469 L 42.238281 16.273438 L 44.316406 16.273438 L 44.316406 17.007812 L 42.238281 17.007812 L 42.238281 18.054688 L 44.546875 18.054688 L 44.546875 18.847656 L 41.296875 18.847656 L 41.296875 14.566406 "/>
<path style="stroke:none;fill-rule:nonzero;fill:rgb(100%,100%,100%);fill-opacity:1;" d="M 46.042969 17.425781 C 46.042969 17.996094 46.488281 18.21875 46.992188 18.21875 C 47.320312 18.21875 47.824219 18.121094 47.824219 17.683594 C 47.824219 17.222656 47.183594 17.144531 46.554688 16.976562 C 45.917969 16.808594 45.277344 16.5625 45.277344 15.757812 C 45.277344 14.882812 46.105469 14.464844 46.878906 14.464844 C 47.769531 14.464844 48.59375 14.851562 48.59375 15.84375 L 47.679688 15.84375 C 47.652344 15.328125 47.285156 15.195312 46.835938 15.195312 C 46.535156 15.195312 46.1875 15.320312 46.1875 15.679688 C 46.1875 16.011719 46.390625 16.050781 47.464844 16.328125 C 47.777344 16.40625 48.738281 16.605469 48.738281 17.578125 C 48.738281 18.359375 48.117188 18.949219 46.957031 18.949219 C 46.007812 18.949219 45.121094 18.480469 45.132812 17.425781 L 46.042969 17.425781 "/>
<path style="stroke:none;fill-rule:nonzero;fill:rgb(100%,100%,100%);fill-opacity:1;" d="M 73.476562 15.878906 C 73.417969 15.453125 73.007812 15.128906 72.542969 15.128906 C 71.695312 15.128906 71.378906 15.847656 71.378906 16.597656 C 71.378906 17.3125 71.695312 18.03125 72.542969 18.03125 C 73.117188 18.03125 73.441406 17.636719 73.511719 17.074219 L 74.425781 17.074219 C 74.328125 18.140625 73.589844 18.824219 72.542969 18.824219 C 71.214844 18.824219 70.4375 17.835938 70.4375 16.597656 C 70.4375 15.328125 71.214844 14.339844 72.542969 14.339844 C 73.484375 14.339844 74.273438 14.890625 74.386719 15.878906 L 73.476562 15.878906 "/>
<path style="stroke:none;fill-rule:nonzero;fill:rgb(100%,100%,100%);fill-opacity:1;" d="M 76.875 14.339844 C 78.199219 14.339844 78.980469 15.328125 78.980469 16.597656 C 78.980469 17.835938 78.199219 18.824219 76.875 18.824219 C 75.550781 18.824219 74.769531 17.835938 74.769531 16.597656 C 74.769531 15.328125 75.550781 14.339844 76.875 14.339844 Z M 76.875 18.03125 C 77.71875 18.03125 78.039062 17.3125 78.039062 16.597656 C 78.039062 15.847656 77.71875 15.128906 76.875 15.128906 C 76.027344 15.128906 75.710938 15.847656 75.710938 16.597656 C 75.710938 17.3125 76.027344 18.03125 76.875 18.03125 "/>
<path style="stroke:none;fill-rule:nonzero;fill:rgb(100%,100%,100%);fill-opacity:1;" d="M 83.144531 17.101562 C 83.144531 18.261719 82.460938 18.824219 81.3125 18.824219 C 80.164062 18.824219 79.492188 18.265625 79.492188 17.101562 L 79.492188 14.441406 L 80.433594 14.441406 L 80.433594 17.101562 C 80.433594 17.570312 80.550781 18.03125 81.3125 18.03125 C 81.984375 18.03125 82.203125 17.738281 82.203125 17.101562 L 82.203125 14.441406 L 83.144531 14.441406 L 83.144531 17.101562 "/>
<path style="stroke:none;fill-rule:nonzero;fill:rgb(100%,100%,100%);fill-opacity:1;" d="M 83.960938 14.441406 L 84.898438 14.441406 L 86.683594 17.3125 L 86.695312 17.3125 L 86.695312 14.441406 L 87.578125 14.441406 L 87.578125 18.722656 L 86.636719 18.722656 L 84.855469 15.855469 L 84.84375 15.855469 L 84.84375 18.722656 L 83.960938 18.722656 L 83.960938 14.441406 "/>
<path style="stroke:none;fill-rule:nonzero;fill:rgb(100%,100%,100%);fill-opacity:1;" d="M 91.269531 15.878906 C 91.207031 15.453125 90.800781 15.128906 90.332031 15.128906 C 89.488281 15.128906 89.167969 15.847656 89.167969 16.597656 C 89.167969 17.3125 89.488281 18.03125 90.332031 18.03125 C 90.910156 18.03125 91.234375 17.636719 91.304688 17.074219 L 92.214844 17.074219 C 92.121094 18.140625 91.382812 18.824219 90.332031 18.824219 C 89.007812 18.824219 88.226562 17.835938 88.226562 16.597656 C 88.226562 15.328125 89.007812 14.339844 90.332031 14.339844 C 91.273438 14.339844 92.066406 14.890625 92.179688 15.878906 L 91.269531 15.878906 "/>
<path style="stroke:none;fill-rule:nonzero;fill:rgb(100%,100%,100%);fill-opacity:1;" d="M 92.867188 18.722656 L 93.808594 18.722656 L 93.808594 14.441406 L 92.867188 14.441406 Z M 92.867188 18.722656 "/>
<path style="stroke:none;fill-rule:nonzero;fill:rgb(100%,100%,100%);fill-opacity:1;" d="M 94.644531 14.441406 L 95.585938 14.441406 L 95.585938 17.929688 L 97.671875 17.929688 L 97.671875 18.722656 L 94.644531 18.722656 L 94.644531 14.441406 "/>
<path style="fill:none;stroke-width:8;stroke-linecap:butt;stroke-linejoin:miter;stroke:rgb(100%,100%,100%);stroke-opacity:1;stroke-miterlimit:4;" d="M 513.007812 204.023438 L 513.007812 106.523438 C 513.007812 106.523438 602.460938 73.046875 690.507812 106.523438 L 690.507812 204.023438 " transform="matrix(0.1,0,0,-0.1,0,32)"/>
<path style="fill:none;stroke-width:8;stroke-linecap:butt;stroke-linejoin:miter;stroke:rgb(100%,100%,100%);stroke-opacity:1;stroke-miterlimit:4;" d="M 511.953125 200.859375 C 511.953125 200.859375 600.585938 238.359375 691.210938 200.859375 " transform="matrix(0.1,0,0,-0.1,0,32)"/>
</g>
</svg>
