<svg xmlns="http://www.w3.org/2000/svg" width="50px" height="50px" viewBox="0 -960 960 960" fill="#fafafa"><path d="M162.57-180q-25.79 0-44.18-18.39T100-242.57v-474.86q0-25.79 18.39-44.18T162.57-780h634.86q25.79 0 44.18 18.39T860-717.43v474.86q0 25.79-18.39 44.18T797.43-180H162.57ZM480-468.51 150.26-684.36v441.79q0 5.39 3.46 8.85t8.85 3.46h634.86q5.39 0 8.85-3.46t3.46-8.85v-441.79L480-468.51Zm0-52.57 321.69-208.66H158.97L480-521.08ZM150.26-684.36v-45.38 487.17q0 5.39 3.46 8.85t8.85 3.46h-12.31v-454.1Z"/></svg>